<svg width="15" height="15" viewBox="0 0 15 15" fill="none" xmlns="http://www.w3.org/2000/svg">
<path d="M7.25781 0.00280762C3.39219 0.00280762 0.257812 3.13718 0.257812 7.00281C0.257812 10.8684 3.39219 14.0028 7.25781 14.0028C11.1234 14.0028 14.2578 10.8684 14.2578 7.00281C14.2578 3.13718 11.1234 0.00280762 7.25781 0.00280762ZM7.25781 12.8153C4.04844 12.8153 1.44531 10.2122 1.44531 7.00281C1.44531 3.79343 4.04844 1.19031 7.25781 1.19031C10.4672 1.19031 13.0703 3.79343 13.0703 7.00281C13.0703 10.2122 10.4672 12.8153 7.25781 12.8153Z" fill="#424DB3"/>
<path d="M6.50757 4.25281C6.50757 4.45172 6.58659 4.64249 6.72724 4.78314C6.86789 4.92379 7.05866 5.00281 7.25757 5.00281C7.45648 5.00281 7.64725 4.92379 7.7879 4.78314C7.92855 4.64249 8.00757 4.45172 8.00757 4.25281C8.00757 4.0539 7.92855 3.86313 7.7879 3.72248C7.64725 3.58183 7.45648 3.50281 7.25757 3.50281C7.05866 3.50281 6.86789 3.58183 6.72724 3.72248C6.58659 3.86313 6.50757 4.0539 6.50757 4.25281ZM7.63257 6.00281H6.88257C6.81382 6.00281 6.75757 6.05906 6.75757 6.12781V10.3778C6.75757 10.4466 6.81382 10.5028 6.88257 10.5028H7.63257C7.70132 10.5028 7.75757 10.4466 7.75757 10.3778V6.12781C7.75757 6.05906 7.70132 6.00281 7.63257 6.00281Z" fill="#424DB3"/>
</svg>
